<?xml version="1.0" encoding="iso-8859-1"?>
<!-- Uploaded to: SVG Repo, www.svgrepo.com, Generator: SVG Repo Mixer Tools -->
<svg fill="#F97316" height="800px" width="800px" version="1.1" id="Layer_1" xmlns="http://www.w3.org/2000/svg" xmlns:xlink="http://www.w3.org/1999/xlink" 
	 viewBox="0 0 511.999 511.999" xml:space="preserve">
<g>
	<g>
		<path d="M330.117,195.364c-5.734-5.308-13.192-8.231-21.002-8.231c-8.586,0-16.857,3.613-22.694,9.912
			c-9.768,10.551-20.188,15.9-30.97,15.9c-9.761,0-19.9-5.453-30.133-16.206c-5.693-5.984-13.376-9.393-21.634-9.598
			c-0.263-0.007-0.524-0.009-0.787-0.009c-7.967,0-15.504,3.009-21.295,8.522c-5.981,5.692-9.39,13.376-9.595,21.633
			c-0.204,8.257,2.818,16.098,8.513,22.081c22.048,23.171,47.958,35.418,74.931,35.418c28.308,0,54.708-12.353,76.347-35.724
			C343.381,226.55,342.626,206.948,330.117,195.364z M318.748,226.977C300.564,246.618,278.675,257,255.451,257
			c-21.984,0-43.44-10.337-62.048-29.893c-2.42-2.543-3.704-5.874-3.616-9.382c0.087-3.505,1.534-6.768,4.077-9.187
			c2.541-2.42,5.862-3.706,9.381-3.617c3.507,0.088,6.771,1.535,9.191,4.077c13.721,14.42,28.194,21.731,43.016,21.731
			c15.937,0,30.748-7.268,44.018-21.601c2.517-2.716,5.942-4.213,9.645-4.213c3.316,0,6.484,1.243,8.919,3.496
			C323.348,213.333,323.668,221.663,318.748,226.977z"/>
	</g>
</g>
<g>
	<g>
		<path d="M442.23,0c-18.219,0-33.042,14.823-33.042,33.042c0,4.912,3.981,8.892,8.892,8.892c4.911,0,8.892-3.98,8.892-8.892
			c0-8.413,6.845-15.258,15.258-15.258s15.258,6.845,15.258,15.258v349.387c0,61.639-50.147,111.787-111.787,111.787h-179.37
			c-61.639,0-111.787-50.147-111.787-111.787V146.261c0-0.266-0.012-0.528-0.034-0.788V33.042c0-8.413,6.845-15.258,15.257-15.258
			s15.258,6.845,15.258,15.258v106.102c0,30.256,24.615,54.87,54.87,54.87h3.758c30.256,0,54.87-24.615,54.87-54.87
			c0-10.774,8.765-19.538,19.538-19.538h86.353c10.774,0,19.538,8.765,19.538,19.538c0,28.096,22.858,50.955,50.953,50.955h1.113
			c28.096,0,50.953-22.858,50.953-50.955V74.994c0-4.912-3.981-8.892-8.892-8.892c-4.911,0-8.892,3.98-8.892,8.892v64.149
			c0,18.291-14.88,33.17-33.169,33.17h-1.113c-18.289,0-33.169-14.88-33.169-33.17c0-20.579-16.743-37.322-37.322-37.322H218.06
			c-20.579,0-37.322,16.743-37.322,37.322c0,20.448-16.637,37.085-37.085,37.085h-3.758c-20.45,0-37.085-16.637-37.085-37.085
			V33.042C102.809,14.823,87.986,0,69.767,0S36.726,14.823,36.726,33.042v113.219c0,0.266,0.012,0.528,0.034,0.787v235.38
			c0,71.446,58.125,129.571,129.571,129.571h179.371c71.446,0,129.571-58.125,129.571-129.571V33.042
			C475.272,14.823,460.449,0,442.23,0z"/>
	</g>
</g>
<g>
	<g>
		<path d="M99.16,247.108c-4.911,0-8.892,3.98-8.892,8.892v147.837c0,4.912,3.981,8.892,8.892,8.892c4.911,0,8.892-3.98,8.892-8.892
			V256C108.052,251.088,104.071,247.108,99.16,247.108z"/>
	</g>
</g>
<g>
	<g>
		<path d="M152.629,300.702c-4.911,0-8.892,3.98-8.892,8.892V457.43c0,4.912,3.981,8.892,8.892,8.892
			c4.911,0,8.892-3.98,8.892-8.892V309.594C161.521,304.682,157.54,300.702,152.629,300.702z"/>
	</g>
</g>
<g>
	<g>
		<path d="M206.099,315.01c-4.911,0-8.892,3.981-8.892,8.892V457.43c0,4.912,3.981,8.892,8.892,8.892
			c4.911,0,8.892-3.98,8.892-8.892V323.902C214.992,318.99,211.01,315.01,206.099,315.01z"/>
	</g>
</g>
<g>
	<g>
		<path d="M255.999,300.702c-4.911,0-8.892,3.98-8.892,8.892V457.43c0,4.912,3.981,8.892,8.892,8.892
			c4.911,0,8.892-3.98,8.892-8.892V309.594C264.891,304.682,260.91,300.702,255.999,300.702z"/>
	</g>
</g>
<g>
	<g>
		<path d="M313.039,315.01c-4.911,0-8.892,3.981-8.892,8.892V457.43c0,4.912,3.981,8.892,8.892,8.892
			c4.911,0,8.892-3.98,8.892-8.892V323.902C321.931,318.99,317.95,315.01,313.039,315.01z"/>
	</g>
</g>
<g>
	<g>
		<path d="M366.509,300.702c-4.911,0-8.892,3.98-8.892,8.892V457.43c0,4.912,3.981,8.892,8.892,8.892
			c4.911,0,8.892-3.98,8.892-8.892V309.594C375.401,304.682,371.419,300.702,366.509,300.702z"/>
	</g>
</g>
<g>
	<g>
		<path d="M419.978,247.108c-4.911,0-8.892,3.98-8.892,8.892v147.837c0,4.912,3.981,8.892,8.892,8.892
			c4.911,0,8.892-3.98,8.892-8.892V256C428.87,251.088,424.889,247.108,419.978,247.108z"/>
	</g>
</g>
</svg>