<?xml version="1.0" encoding="iso-8859-1"?>
<!-- Uploaded to: SVG Repo, www.svgrepo.com, Generator: SVG Repo Mixer Tools -->
<svg fill="#F97316" height="800px" width="800px" version="1.1" id="Layer_1" xmlns="http://www.w3.org/2000/svg" xmlns:xlink="http://www.w3.org/1999/xlink" 
	 viewBox="0 0 512.004 512.004" xml:space="preserve">
<g>
	<g>
		<path d="M276.218,240.436c-1.778-4.462-6.836-6.637-11.297-4.861c-2.619,1.044-5.324,1.589-8.042,1.62
			c-3.182,0.034-6.361-0.628-9.437-1.98c-4.393-1.932-9.526,0.065-11.461,4.462c-1.933,4.397,0.065,9.528,4.462,11.461
			c5.213,2.291,10.652,3.452,16.173,3.452c0.156,0,0.312-0.001,0.468-0.002c4.861-0.057,9.663-1.017,14.273-2.854
			C275.819,249.955,277.995,244.898,276.218,240.436z"/>
	</g>
</g>
<g>
	<g>
		<path d="M391.173,306.826c-0.064-0.023-35.545-8.578-35.545-8.578c-4.66-1.149-9.375,1.701-10.523,6.365s1.702,9.376,6.366,10.523
			l35.22,8.491c56.529,15.536,95.998,67.312,95.998,125.945v36.167c-3.885,3.665-8.098,7.028-10.514,8.388
			c-1.206-1.009-2.879-2.72-3.993-3.86c-4.388-4.487-9.359-9.574-16.026-9.574s-11.639,5.087-16.026,9.574
			c-0.994,1.017-2.434,2.49-3.589,3.511c-1.155-1.022-2.595-2.494-3.589-3.511c-4.388-4.487-9.359-9.574-16.026-9.574
			s-11.639,5.087-16.026,9.574c-0.994,1.017-2.434,2.49-3.59,3.511c-1.155-1.022-2.595-2.494-3.589-3.511
			c-4.388-4.487-9.359-9.574-16.026-9.574s-11.639,5.087-16.026,9.574c-0.994,1.017-2.434,2.49-3.589,3.511
			c-1.156-1.022-2.595-2.494-3.59-3.511c-4.388-4.487-9.359-9.574-16.026-9.574s-11.639,5.087-16.026,9.574
			c-0.994,1.017-2.434,2.49-3.589,3.511c-1.155-1.022-2.595-2.494-3.589-3.511c-4.388-4.487-9.359-9.574-16.026-9.574
			c-6.666,0-11.639,5.087-16.026,9.574c-0.994,1.017-2.434,2.49-3.59,3.511c-1.155-1.022-2.595-2.494-3.589-3.511
			c-4.388-4.487-9.359-9.574-16.026-9.574c-6.666,0-11.639,5.087-16.025,9.574c-0.994,1.017-2.434,2.49-3.589,3.511
			c-1.156-1.022-2.595-2.494-3.59-3.511c-4.388-4.487-9.36-9.574-16.026-9.574s-11.639,5.087-16.026,9.574
			c-0.994,1.017-2.434,2.49-3.589,3.511c-1.155-1.022-2.595-2.494-3.589-3.511c-4.388-4.487-9.36-9.574-16.026-9.574
			c-6.666,0-11.639,5.087-16.026,9.574c-0.994,1.017-2.434,2.49-3.59,3.511c-1.155-1.022-2.595-2.494-3.589-3.511
			c-4.388-4.487-9.36-9.574-16.026-9.574c-6.666,0-11.639,5.087-16.026,9.574c-0.994,1.017-2.434,2.49-3.589,3.511
			c-1.156-1.022-2.595-2.494-3.59-3.511c-4.388-4.487-9.359-9.574-16.026-9.574c-6.666,0-11.639,5.087-16.026,9.574
			c-0.994,1.017-2.434,2.49-3.589,3.511c-1.155-1.022-2.595-2.494-3.589-3.511c-4.388-4.487-9.359-9.574-16.026-9.574
			s-11.639,5.087-16.026,9.574c-1.114,1.14-2.787,2.851-3.993,3.86c-2.416-1.361-6.63-4.723-10.514-8.388v-33.841
			c0-59.953,40.607-112.042,98.75-126.669c0.07-0.018,0.139-0.036,0.209-0.056l66.335-18.448
			c7.829,7.88,26.757,23.232,55.446,23.232c0.231,0,0.453-0.012,0.683-0.013c0.257,0.002,0.508,0.013,0.766,0.013
			c17.008,0,31.445-4.267,42.663-9.405c16.138-7.278,25.355-16.298,26.519-17.477c1.59-1.59,2.53-3.796,2.561-6.044l0.555-40.117
			c7.036-9.264,13.117-20.073,17.998-32.19c4.558-0.301,9.115-0.889,13.611-1.811c2.734-0.56,5.033-2.399,6.181-4.944
			c9.739-21.595,14.887-46.116,14.887-70.913C376.489,65.97,322.441,0,256.006,0S135.523,65.97,135.523,147.059
			c0,3.986,0.139,8.082,0.414,12.171c0.306,4.568,4.101,8.114,8.675,8.114c0.013,0,0.026,0,0.038,0
			c28.931-0.124,56.753-12.979,78.391-35.779c16.371,51.213,55.065,87.107,100.078,92.636c-3.926,8.564-8.546,16.235-13.706,22.911
			c-0.765,0.676-1.413,1.479-1.904,2.385c-14.258,17.322-32.351,27.229-51.503,27.229c-18.002,0-35.087-8.594-49.405-24.854
			c-14.493-16.456-24.834-39.693-29.12-65.43c-0.79-4.738-5.268-7.946-10.007-7.149c-4.738,0.788-7.939,5.269-7.15,10.007
			c4.56,27.385,14.853,51.092,28.908,69.008l-0.395,31.977l-65.113,18.108c-65.826,16.612-111.794,75.61-111.794,143.511v37.49
			c0,2.273,0.889,4.455,2.478,6.079c7.372,7.541,17.839,16.531,25.833,16.531c6.666,0,11.639-5.087,16.026-9.574
			c0.994-1.017,2.434-2.489,3.59-3.511c1.155,1.022,2.595,2.494,3.589,3.511c4.388,4.487,9.36,9.574,16.026,9.574
			c6.666,0,11.639-5.087,16.026-9.574c0.994-1.017,2.434-2.489,3.589-3.511c1.156,1.022,2.595,2.494,3.59,3.511
			c4.388,4.487,9.36,9.574,16.026,9.574c6.666,0,11.639-5.087,16.026-9.574c0.994-1.017,2.434-2.489,3.589-3.511
			c1.155,1.022,2.595,2.494,3.589,3.511c4.388,4.487,9.359,9.574,16.026,9.574c6.666,0,11.639-5.087,16.026-9.574
			c0.994-1.017,2.434-2.489,3.59-3.511c1.155,1.022,2.595,2.494,3.589,3.511c4.388,4.487,9.359,9.574,16.026,9.574
			c6.666,0,11.639-5.087,16.026-9.574c0.994-1.017,2.434-2.489,3.589-3.511c1.156,1.022,2.595,2.494,3.59,3.511
			c4.388,4.487,9.36,9.574,16.026,9.574s11.639-5.087,16.026-9.574c0.994-1.017,2.434-2.489,3.589-3.511
			c1.155,1.022,2.595,2.494,3.589,3.511c4.388,4.487,9.36,9.574,16.026,9.574c6.666,0,11.639-5.087,16.026-9.574
			c0.994-1.017,2.434-2.489,3.59-3.511c1.155,1.022,2.595,2.494,3.589,3.511c4.388,4.487,9.359,9.574,16.026,9.574
			s11.639-5.087,16.026-9.574c0.994-1.017,2.434-2.489,3.589-3.511c1.156,1.022,2.595,2.494,3.59,3.511
			c4.388,4.487,9.359,9.574,16.026,9.574s11.639-5.087,16.026-9.574c0.994-1.017,2.434-2.489,3.589-3.511
			c1.155,1.022,2.595,2.494,3.589,3.511c4.388,4.487,9.359,9.574,16.026,9.574s11.639-5.087,16.026-9.574
			c0.994-1.017,2.434-2.489,3.59-3.511c1.155,1.022,2.595,2.494,3.589,3.511c4.388,4.487,9.359,9.574,16.026,9.574
			s11.639-5.087,16.026-9.574c0.994-1.017,2.434-2.489,3.589-3.511c1.156,1.022,2.595,2.494,3.59,3.511
			c4.388,4.487,9.359,9.574,16.026,9.574c7.995,0,18.46-8.99,25.833-16.531c1.589-1.624,2.478-3.807,2.478-6.079v-39.819
			C500.073,383.092,455.292,324.392,391.173,306.826z M235.645,111.283c-0.711-3.357-3.329-5.982-6.685-6.701
			c-0.608-0.131-1.219-0.194-1.824-0.194c-2.739,0-5.363,1.296-7.021,3.565c-17.518,23.967-41.64,38.77-67.18,41.529
			c-0.013-0.813-0.019-1.62-0.019-2.423c-0.001-71.5,46.246-129.667,103.089-129.667s103.09,58.168,103.09,129.666
			c0,20.762-3.984,41.264-11.55,59.596c-4.079,0.612-8.19,0.922-12.272,0.922C288.62,207.576,247.65,167.98,235.645,111.283z
			 M206.41,275.789c14.619,11.714,31.59,18.327,49.597,18.327c18.109,0,35.316-6.694,50.157-18.79l-0.243,17.613
			c-3.265,2.682-9.622,7.366-18.463,11.49c-9.391,4.302-21.723,7.985-36.545,8.124c-24.261-0.221-39.595-13.6-44.722-18.905
			L206.41,275.789z"/>
	</g>
</g>
<g>
	<g>
		<circle cx="221.135" cy="190.008" r="8.695"/>
	</g>
</g>
</svg>